<!DOCTYPE svg PUBLIC "-//W3C//DTD SVG 20010904//EN" "http://www.w3.org/TR/2001/REC-SVG-20010904/DTD/svg10.dtd">
<svg version="1.0" xmlns="http://www.w3.org/2000/svg" width="876px" height="876px" viewBox="0 0 8760 8760" preserveAspectRatio="xMidYMid meet">
<g id="layer101" fill="#ffffff" stroke="none">
 <path d="M4330 6765 c-39 -13 -273 -243 -2168 -2137 -1257 -1256 -2130 -2136 -2138 -2155 -18 -41 -18 -105 0 -146 7 -18 85 -102 172 -189 149 -147 162 -157 206 -163 28 -4 62 -2 85 5 31 10 390 364 1966 1939 l1927 1926 1928 -1926 c1575 -1575 1934 -1929 1965 -1939 23 -7 57 -9 85 -5 44 6 57 16 206 163 87 87 165 171 172 189 17 38 18 101 4 140 -6 16 -919 937 -2138 2156 -2003 2003 -2130 2128 -2176 2142 -27 8 -50 15 -50 14 -1 0 -21 -7 -46 -14z"/>
 </g>

</svg>