<!DOCTYPE svg PUBLIC "-//W3C//DTD SVG 20010904//EN" "http://www.w3.org/TR/2001/REC-SVG-20010904/DTD/svg10.dtd">
<svg version="1.0" xmlns="http://www.w3.org/2000/svg" width="1024px" height="1024px" viewBox="0 0 10240 10240" preserveAspectRatio="xMidYMid meet">
<g id="layer101" fill="#ffffff" stroke="none">
 <path d="M4765 10234 c-379 -37 -605 -73 -872 -139 -1730 -428 -3106 -1712 -3652 -3408 -100 -310 -174 -660 -218 -1022 -26 -216 -26 -874 0 -1090 74 -614 231 -1162 481 -1680 508 -1051 1340 -1883 2391 -2391 518 -250 1066 -407 1680 -481 216 -26 874 -26 1090 0 614 74 1162 231 1680 481 1051 508 1883 1340 2391 2391 250 518 407 1066 481 1680 14 121 18 227 18 545 0 430 -7 523 -66 870 -230 1371 -1032 2608 -2194 3385 -693 463 -1446 738 -2300 841 -101 12 -241 17 -505 19 -201 1 -383 1 -405 -1z"/>
 </g>

</svg>