<!DOCTYPE svg PUBLIC "-//W3C//DTD SVG 20010904//EN" "http://www.w3.org/TR/2001/REC-SVG-20010904/DTD/svg10.dtd">
<svg version="1.0" xmlns="http://www.w3.org/2000/svg" width="799px" height="799px" viewBox="0 0 7990 7990" preserveAspectRatio="xMidYMid meet">
<g id="layer101" fill="#ffffff" stroke="none">
 <path d="M3710 7975 c-473 -66 -892 -275 -1231 -614 -320 -320 -519 -702 -602 -1156 l-22 -120 0 -2090 0 -2090 22 -120 c83 -454 282 -836 602 -1156 320 -320 703 -520 1156 -602 175 -32 545 -32 720 0 453 82 836 282 1156 602 320 320 519 702 602 1156 l22 120 0 2090 0 2090 -22 120 c-83 454 -282 836 -602 1156 -319 319 -705 521 -1151 601 -152 27 -496 34 -650 13z m490 -110 c661 -79 1211 -440 1556 -1019 131 -219 225 -508 259 -796 21 -170 21 -3940 0 -4110 -79 -661 -440 -1211 -1019 -1556 -274 -163 -678 -273 -1001 -273 -323 0 -727 110 -1001 273 -579 345 -940 895 -1019 1556 -21 170 -21 3940 0 4110 79 661 440 1211 1019 1556 345 205 816 307 1206 259z"/>
 <path d="M3910 4440 l0 -1430 80 0 80 0 0 1430 0 1430 -80 0 -80 0 0 -1430z"/>
 <path d="M3872 2785 c-75 -35 -145 -113 -198 -220 -75 -152 -88 -218 -88 -445 0 -227 13 -293 88 -445 80 -163 186 -245 316 -245 130 0 236 82 316 245 75 152 88 218 88 445 0 227 -13 293 -88 445 -80 163 -186 245 -316 245 -48 0 -79 -7 -118 -25z"/>
 <path d="M3910 995 l0 -335 80 0 80 0 0 335 0 335 -80 0 -80 0 0 -335z"/>
 </g>

</svg>